<?xml version="1.0" encoding="UTF-8" standalone="no"?>
<!-- Generator: Adobe Illustrator 15.0.0, SVG Export Plug-In . SVG Version: 6.00 Build 0)  -->

<svg
   xmlns:dc="http://purl.org/dc/elements/1.1/"
   xmlns:cc="http://creativecommons.org/ns#"
   xmlns:rdf="http://www.w3.org/1999/02/22-rdf-syntax-ns#"
   xmlns:svg="http://www.w3.org/2000/svg"
   xmlns="http://www.w3.org/2000/svg"
   xmlns:sodipodi="http://sodipodi.sourceforge.net/DTD/sodipodi-0.dtd"
   xmlns:inkscape="http://www.inkscape.org/namespaces/inkscape"
   version="1.1"
   x="0px"
   y="0px"
   width="926px"
   height="154px"
   viewBox="0 0 926 154"
   enable-background="new 0 0 926 154"
   xml:space="preserve"
   id="svg2"
   inkscape:version="0.47 r22583"
   sodipodi:docname="StuStaNet_Logo.svg"><metadata
   id="metadata95"><rdf:RDF><cc:Work
       rdf:about=""><dc:format>image/svg+xml</dc:format><dc:type
         rdf:resource="http://purl.org/dc/dcmitype/StillImage" /></cc:Work></rdf:RDF></metadata><defs
   id="defs93"><inkscape:perspective
     sodipodi:type="inkscape:persp3d"
     inkscape:vp_x="0 : 77 : 1"
     inkscape:vp_y="0 : 1000 : 0"
     inkscape:vp_z="926 : 77 : 1"
     inkscape:persp3d-origin="463 : 51.333333 : 1"
     id="perspective97" /></defs><sodipodi:namedview
   pagecolor="#ffffff"
   bordercolor="#666666"
   borderopacity="1"
   objecttolerance="10"
   gridtolerance="10"
   guidetolerance="10"
   inkscape:pageopacity="0"
   inkscape:pageshadow="2"
   inkscape:window-width="1920"
   inkscape:window-height="1152"
   id="namedview91"
   showgrid="false"
   inkscape:zoom="1.6494067"
   inkscape:cx="463"
   inkscape:cy="77"
   inkscape:window-x="-4"
   inkscape:window-y="25"
   inkscape:window-maximized="1"
   inkscape:current-layer="svg2" />
<g
   id="Ebene_8">
	<g
   id="g5">
		<polygon
   fill="#5E92BD"
   points="735.276,11 628.403,11 734.484,142 841.358,142   "
   id="polygon7" />
		<polygon
   fill="#89BA50"
   points="605.277,11 498.402,11 604.484,142 711.358,142   "
   id="polygon9" />
		<polygon
   fill="#E26C44"
   points="475.277,11 368.401,11 474.483,142 581.359,142   "
   id="polygon11" />
		<polygon
   fill="#FFE759"
   points="345.28,11 238.4,11 344.48,142 451.36,142   "
   id="polygon13" />
	</g>
</g>
<g
   id="Schrift_Schwarz">
	<g
   id="g67">
		<g
   id="g69">
			<rect
   x="703.815"
   y="70"
   width="65.684998"
   height="12"
   id="rect71"
   style="stroke:#000000" />
			<path
   d="M 893.815,38 V 26 h -100 -86 c -13.808,0 -25,11.193 -25,25 v 51 c 0,7.18 -5.82,13 -13,13 -4.089,0 -7.737,-1.889 -10.121,-4.841 l -60.415,-74.85 -10e-4,0 C 594.695,29.631 587.68,26 579.815,26 c -1.118,0 -2.219,0.073 -3.298,0.215 l 73.834,91.475 v 0.001 c 4.583,5.677 11.6,9.308 19.464,9.308 13.807,0 25,-11.193 25,-25 V 51 c 0,-7.18 5.82,-13 13,-13 h 86.186 99.814 z"
   id="path73"
   style="stroke:#000000" />
			<path
   d="m 849.82,126.555 c -7.195,-4.39 -12,-12.313 -12,-21.359 v -57.75 h 12 v 79.106 0.003 z"
   id="path75"
   style="stroke:#000000" />
			<path
   d="m 703.75,114.998 c 4.39,7.195 12.313,12 21.359,12 h 61.164 v -12 h -82.521 -0.002 z"
   id="path77"
   style="stroke:#000000" />
		</g>
		<g
   id="g79">
			<polygon
   points="541.815,93 541.815,81 572,81 582,93 "
   id="polygon81"
   style="stroke:#000000" />
			<path
   d="M 635.117,126.784 561.106,35.098 C 556.521,29.541 549.582,26 541.816,26 h -83.855 -91.146 c -9.045,0 -16.969,4.804 -21.357,12 -2.311,3.788 -3.643,8.238 -3.643,13 0,11.803 8.18,21.696 19.179,24.319 l 58.849,14.036 c 5.72,1.364 9.973,6.508 9.973,12.646 0,7.18 -5.82,13 -13,13 H 279 c -12.702,0 -23,-10.297 -23,-23 V 51 C 256,37.193 244.807,26 231,26 H 56 C 46.955,26 39.033,30.805 34.643,38 32.332,41.788 31,46.238 31,51 c 0,11.803 8.179,21.696 19.179,24.319 l 58.849,14.036 C 114.747,90.719 119,95.862 119,102 c 0,7.18 -5.82,13 -13,13 H 28.643 l 10e-4,0.003 C 33.033,122.197 40.956,127 50,127 l 56,0 c 9.045,0 16.968,-4.805 21.357,-12 2.311,-3.788 3.643,-8.238 3.643,-13 0,-11.803 -8.179,-21.696 -19.179,-24.319 L 52.973,63.646 C 47.252,62.281 43,57.138 43,51 43,43.82 48.82,38 56,38 h 175 c 7.18,0 13,5.82 13,13 v 41 c 0,10.523 4.65,19.954 12,26.37 6.151,5.37 14.192,8.63 23,8.63 h 137.815 c 9.045,0 16.968,-4.805 21.357,-12 2.311,-3.788 3.643,-8.238 3.643,-13 0,-11.803 -8.179,-21.696 -19.179,-24.319 L 363.787,63.645 c -5.721,-1.364 -9.973,-6.508 -9.973,-12.646 0,-7.18 5.82,-13 13,-13 h 175.001 c 4.09,0 7.737,1.89 10.12,4.844 l 60.415,74.848 c 4.583,5.677 11.6,9.308 19.464,9.308 1.121,0.001 2.223,-0.073 3.303,-0.215 z"
   id="path83"
   style="stroke:#000000" />
			<path
   d="m 187,126.555 c -7.196,-4.39 -12,-12.313 -12,-21.359 v -57.75 h 12 v 79.106 0.003 z"
   id="path85"
   style="stroke:#000000" />
			<path
   d="m 497.82,126.553 c -7.195,-4.39 -12,-12.313 -12,-21.359 v -57.75 h 12 v 79.106 0.003 z"
   id="path87"
   style="stroke:#000000" />
			<path
   d="m 309.891,26.813 c 7.195,4.39 12,12.313 12,21.359 v 57.75 h -12 V 26.816 26.813 z"
   id="path89"
   style="stroke:#000000" />
		</g>
	</g>
</g>
</svg>